<svg width="1262" height="527" xmlns="http://www.w3.org/2000/svg" xmlns:xlink="http://www.w3.org/1999/xlink" xml:space="preserve" overflow="hidden"><defs><clipPath id="clip0"><rect x="254" y="477" width="1262" height="527"/></clipPath></defs><g clip-path="url(#clip0)" transform="translate(-254 -477)"><rect x="255" y="478" width="253" height="92.9998" stroke="#000000" stroke-width="2.29167" stroke-miterlimit="8" fill="#FFFFFF"/><text font-family="Malgun Gothic,Malgun Gothic_MSFontService,sans-serif" font-weight="400" font-size="28" transform="matrix(1 0 0 1 353.965 518)">초안</text><text font-family="Malgun Gothic,Malgun Gothic_MSFontService,sans-serif" font-weight="400" font-size="28" transform="matrix(1 0 0 1 341.933 551)">(Draft)</text><rect x="255" y="908" width="253" height="93.0002" stroke="#000000" stroke-width="2.29167" stroke-miterlimit="8" fill="#FFFFFF"/><text font-family="Malgun Gothic,Malgun Gothic_MSFontService,sans-serif" font-weight="400" font-size="28" transform="matrix(1 0 0 1 340.225 948)">연기된</text><text font-family="Malgun Gothic,Malgun Gothic_MSFontService,sans-serif" font-weight="400" font-size="28" transform="matrix(1 0 0 1 323.313 981)">(Deferred)</text><rect x="591" y="478" width="253" height="92.9998" stroke="#000000" stroke-width="2.29167" stroke-miterlimit="8" fill="#FFFFFF"/><text font-family="Malgun Gothic,Malgun Gothic_MSFontService,sans-serif" font-weight="400" font-size="28" transform="matrix(1 0 0 1 676 518)">제안된</text><text font-family="Malgun Gothic,Malgun Gothic_MSFontService,sans-serif" font-weight="400" font-size="28" transform="matrix(1 0 0 1 649.348 551)">(Proposed)</text><rect x="591" y="631" width="253" height="92.9998" stroke="#000000" stroke-width="2.29167" stroke-miterlimit="8" fill="#FFFFFF"/><text font-family="Malgun Gothic,Malgun Gothic_MSFontService,sans-serif" font-weight="400" font-size="28" transform="matrix(1 0 0 1 675.988 671)">거절된</text><text font-family="Malgun Gothic,Malgun Gothic_MSFontService,sans-serif" font-weight="400" font-size="28" transform="matrix(1 0 0 1 654.79 704)">(Rejected)</text><rect x="591" y="784" width="253" height="92.9998" stroke="#000000" stroke-width="2.29167" stroke-miterlimit="8" fill="#FFFFFF"/><text font-family="Malgun Gothic,Malgun Gothic_MSFontService,sans-serif" font-weight="400" font-size="28" transform="matrix(1 0 0 1 676 824)">중단된</text><text font-family="Malgun Gothic,Malgun Gothic_MSFontService,sans-serif" font-weight="400" font-size="28" transform="matrix(1 0 0 1 640.754 857)">(Withdrawn)</text><rect x="927" y="478" width="252" height="92.9998" stroke="#000000" stroke-width="2.29167" stroke-miterlimit="8" fill="#FFFFFF"/><text font-family="Malgun Gothic,Malgun Gothic_MSFontService,sans-serif" font-weight="400" font-size="28" transform="matrix(1 0 0 1 965.069 518)">최종</text><text font-family="Malgun Gothic,Malgun Gothic_MSFontService,sans-serif" font-weight="400" font-size="28" transform="matrix(1 0 0 1 1020.07 518)">/</text><text font-family="Malgun Gothic,Malgun Gothic_MSFontService,sans-serif" font-weight="400" font-size="28" transform="matrix(1 0 0 1 1030.95 518)">활성화된</text><text font-family="Malgun Gothic,Malgun Gothic_MSFontService,sans-serif" font-weight="400" font-size="28" transform="matrix(1 0 0 1 971.944 551)">(Final/Active)</text><rect x="927" y="717" width="252" height="92.9998" stroke="#000000" stroke-width="2.29167" stroke-miterlimit="8" fill="#FFFFFF"/><text font-family="Malgun Gothic,Malgun Gothic_MSFontService,sans-serif" font-weight="400" font-size="28" transform="matrix(1 0 0 1 1011.77 757)">대체된</text><text font-family="Malgun Gothic,Malgun Gothic_MSFontService,sans-serif" font-weight="400" font-size="28" transform="matrix(1 0 0 1 987.413 790)">(Replaced)</text><rect x="1262" y="478" width="253" height="92.9998" stroke="#000000" stroke-width="2.29167" stroke-miterlimit="8" fill="#FFFFFF"/><text font-family="Malgun Gothic,Malgun Gothic_MSFontService,sans-serif" font-weight="400" font-size="28" transform="matrix(1 0 0 1 1347.55 518)">구식의</text><text font-family="Malgun Gothic,Malgun Gothic_MSFontService,sans-serif" font-weight="400" font-size="28" transform="matrix(1 0 0 1 1326.05 551)">(obsolete)</text><path d="M508 522.854 577.096 522.854 577.096 525.146 508 525.146ZM572.513 510.25 590.846 524 572.512 537.75Z"/><path d="M844 522.854 913.096 522.854 913.096 525.146 844 525.146ZM908.512 510.25 926.846 524 908.512 537.75Z"/><path d="M4.99145e-06-1.14583 69.0961-1.14553 69.0961 1.14613-4.99145e-06 1.14583ZM64.5128-13.7497 82.8461 0.000360892 64.5127 13.7503Z" transform="matrix(1 0 0 -1 1179 524)"/><path d="M1054.15 571 1054.15 703.087 1051.85 703.087 1051.85 571ZM1066.75 698.503 1053 716.837 1039.25 698.503Z"/><path d="M315.146 584.75 315.146 908.073 312.854 908.073 312.854 584.75ZM300.25 589.333 314 571 327.75 589.333Z"/><path d="M0-1.14583 260.511-1.14583 260.511 195.56 258.219 195.56 258.219 0 259.365 1.14583 0 1.14583ZM273.115 190.977 259.365 209.31 245.615 190.977Z" transform="matrix(1.83697e-16 1 1 -1.83697e-16 381 571)"/><path d="M0-1.14583 107.579-1.14583 107.579 154.137 105.287 154.137 105.287 0 106.433 1.14583 0 1.14583ZM120.183 149.554 106.433 167.887 92.6833 149.554Z" transform="matrix(1.83697e-16 1 1 -1.83697e-16 423 571)"/><path d="M282.146 571 282.146 894.324 279.854 894.324 279.854 571ZM294.75 889.74 281 908.073 267.25 889.74Z"/><path d="M844 551.854 850.875 551.854 850.875 554.146 844 554.146ZM853.167 551.854 860.042 551.854 860.042 554.146 853.167 554.146ZM862.333 551.854 869.208 551.854 869.208 554.146 862.333 554.146ZM871.5 551.854 878.375 551.854 878.375 554.146 871.5 554.146ZM880.667 551.854 882.162 551.854 882.162 559.526 879.87 559.526 879.87 553 881.016 554.146 880.667 554.146ZM882.162 561.817 882.162 568.692 879.87 568.692 879.87 561.817ZM882.162 570.984 882.162 577.859 879.87 577.859 879.87 570.984ZM882.162 580.151 882.162 587.026 879.87 587.026 879.87 580.151ZM882.162 589.317 882.162 596.192 879.87 596.192 879.87 589.317ZM882.162 598.484 882.162 605.359 879.87 605.359 879.87 598.484ZM882.162 607.651 882.162 614.526 879.87 614.526 879.87 607.651ZM882.162 616.817 882.162 623.692 879.87 623.692 879.87 616.817ZM882.162 625.984 882.162 632.859 879.87 632.859 879.87 625.984ZM882.162 635.151 882.162 642.026 879.87 642.026 879.87 635.151ZM882.162 644.317 882.162 651.192 879.87 651.192 879.87 644.317ZM882.162 653.484 882.162 660.359 879.87 660.359 879.87 653.484ZM882.162 662.651 882.162 669.526 879.87 669.526 879.87 662.651ZM882.162 671.817 882.162 678.353 879.531 678.353 879.531 676.062 881.016 676.062 879.87 677.207 879.87 671.817ZM877.239 678.353 870.364 678.353 870.364 676.062 877.239 676.062ZM868.072 678.353 861.197 678.353 861.197 676.062 868.072 676.062ZM864.128 690.957 845.795 677.207 864.128 663.457Z"/></g></svg>